<?xml version="1.0" encoding="UTF-8"?>
<!DOCTYPE svg PUBLIC "-//W3C//DTD SVG 1.1//EN" "http://www.w3.org/Graphics/SVG/1.1/DTD/svg11.dtd">
<svg xmlns="http://www.w3.org/2000/svg" version="1.1" width="60px" height="60px" style="shape-rendering:geometricPrecision; text-rendering:geometricPrecision; image-rendering:optimizeQuality; fill-rule:evenodd; clip-rule:evenodd" xmlns:xlink="http://www.w3.org/1999/xlink">
<g><path style="opacity:0.914" fill="#f8f8f8" d="M 21.5,-0.5 C 26.8333,-0.5 32.1667,-0.5 37.5,-0.5C 48.5,3.16667 55.8333,10.5 59.5,21.5C 59.5,26.8333 59.5,32.1667 59.5,37.5C 57.2446,44.3251 53.2446,49.9918 47.5,54.5C 46.3157,50.0827 45.3157,45.5827 44.5,41C 46.1365,37.5602 47.6365,34.0602 49,30.5C 49.6667,25.5 49.6667,20.5 49,15.5C 47.0838,14.0722 44.9171,13.0722 42.5,12.5C 39.6645,6.39769 35.3312,5.06435 29.5,8.5C 24.8999,7.55652 20.2332,7.22319 15.5,7.5C 15.5,8.83333 15.5,10.1667 15.5,11.5C 13.4727,11.3379 11.4727,11.5045 9.5,12C 8.80805,14.9074 7.80805,17.7408 6.5,20.5C 6.70283,22.2077 7.53616,23.541 9,24.5C 8.2319,32.8305 11.0652,39.4972 17.5,44.5C 18.4922,48.7828 18.8256,53.1161 18.5,57.5C 8.74106,54.0747 2.40772,47.408 -0.5,37.5C -0.5,32.1667 -0.5,26.8333 -0.5,21.5C 3.16667,10.5 10.5,3.16667 21.5,-0.5 Z"/></g>
<g><path style="opacity:1" fill="#131413" d="M 47.5,54.5 C 46.609,55.1098 45.609,55.4431 44.5,55.5C 43.7776,51.6092 42.9443,47.6092 42,43.5C 41.6174,44.056 41.1174,44.3893 40.5,44.5C 40.44,43.9569 40.1067,43.6236 39.5,43.5C 38.0878,44.8064 36.4211,45.6397 34.5,46C 32.8292,50.1023 33.4959,50.9357 36.5,48.5C 36.5,52.1667 36.5,55.8333 36.5,59.5C 35.8333,59.5 35.1667,59.5 34.5,59.5C 34.6748,55.0333 33.6748,50.8666 31.5,47C 28.4815,47.5649 25.4815,47.3982 22.5,46.5C 21.537,46.9698 21.537,47.6365 22.5,48.5C 21.5206,51.6248 21.1872,54.9581 21.5,58.5C 20.209,58.7373 19.209,58.404 18.5,57.5C 18.8256,53.1161 18.4922,48.7828 17.5,44.5C 11.0652,39.4972 8.2319,32.8305 9,24.5C 7.53616,23.541 6.70283,22.2077 6.5,20.5C 7.80805,17.7408 8.80805,14.9074 9.5,12C 11.4727,11.5045 13.4727,11.3379 15.5,11.5C 15.5,10.1667 15.5,8.83333 15.5,7.5C 20.2332,7.22319 24.8999,7.55652 29.5,8.5C 35.3312,5.06435 39.6645,6.39769 42.5,12.5C 44.9171,13.0722 47.0838,14.0722 49,15.5C 49.6667,20.5 49.6667,25.5 49,30.5C 47.6365,34.0602 46.1365,37.5602 44.5,41C 45.3157,45.5827 46.3157,50.0827 47.5,54.5 Z"/></g>
<g><path style="opacity:1" fill="#f1c392" d="M 11.5,32.5 C 11.5,30.8333 11.5,29.1667 11.5,27.5C 12.791,27.2627 13.791,27.596 14.5,28.5C 13.2368,32.0661 14.4034,33.0661 18,31.5C 18.7401,30.2506 18.5735,29.2506 17.5,28.5C 16.8333,27.8333 16.1667,27.1667 15.5,26.5C 17.0847,25.9976 17.5847,24.9976 17,23.5C 15.9887,24.3366 14.8221,24.67 13.5,24.5C 13.0101,22.0516 13.8434,20.385 16,19.5C 19.7384,22.0594 23.4051,22.0594 27,19.5C 29.464,20.1608 31.964,20.6608 34.5,21C 35.3567,21.6891 36.0233,22.5224 36.5,23.5C 35.1666,24.6199 34.6666,25.9532 35,27.5C 35.414,27.0426 35.914,26.7093 36.5,26.5C 37.1667,28.1667 37.8333,29.8333 38.5,31.5C 43.4587,30.2961 45.292,32.2961 44,37.5C 35.0673,46.796 25.4007,47.796 15,40.5C 13.0073,38.1825 11.8406,35.5158 11.5,32.5 Z"/></g>
<g><path style="opacity:1" fill="#756653" d="M 15.5,26.5 C 16.1667,27.1667 16.8333,27.8333 17.5,28.5C 16.5,28.5 15.5,28.5 14.5,28.5C 13.791,27.596 12.791,27.2627 11.5,27.5C 11.5,29.1667 11.5,30.8333 11.5,32.5C 10.5386,30.7354 10.2053,28.7354 10.5,26.5C 12.1667,26.5 13.8333,26.5 15.5,26.5 Z"/></g>
<g><path style="opacity:1" fill="#15130f" d="M 14.5,28.5 C 15.5,28.5 16.5,28.5 17.5,28.5C 18.5735,29.2506 18.7401,30.2506 18,31.5C 14.4034,33.0661 13.2368,32.0661 14.5,28.5 Z"/></g>
<g><path style="opacity:1" fill="#161410" d="M 26.5,27.5 C 30.1612,27.3501 31.1612,28.8501 29.5,32C 28.5509,32.6172 27.7175,32.4506 27,31.5C 26.51,30.2068 26.3433,28.8734 26.5,27.5 Z"/></g>
<g><path style="opacity:1" fill="#028d7f" d="M 40.5,44.5 C 38.8608,45.4725 37.5274,46.8058 36.5,48.5C 33.4959,50.9357 32.8292,50.1023 34.5,46C 36.4211,45.6397 38.0878,44.8064 39.5,43.5C 40.1067,43.6236 40.44,43.9569 40.5,44.5 Z"/></g>
<g><path style="opacity:0.944" fill="#554521" d="M 44.5,55.5 C 42.388,57.2055 40.0547,58.5389 37.5,59.5C 37.1667,59.5 36.8333,59.5 36.5,59.5C 36.5,55.8333 36.5,52.1667 36.5,48.5C 37.5274,46.8058 38.8608,45.4725 40.5,44.5C 41.1174,44.3893 41.6174,44.056 42,43.5C 42.9443,47.6092 43.7776,51.6092 44.5,55.5 Z"/></g>
<g><path style="opacity:0.94" fill="#564521" d="M 22.5,48.5 C 23.1667,48.8333 23.8333,49.1667 24.5,49.5C 24.5,52.8333 24.5,56.1667 24.5,59.5C 23.5,59.5 22.5,59.5 21.5,59.5C 21.5,59.1667 21.5,58.8333 21.5,58.5C 21.1872,54.9581 21.5206,51.6248 22.5,48.5 Z"/></g>
<g><path style="opacity:1" fill="#091310" d="M 24.5,49.5 C 25.1174,49.6107 25.6174,49.944 26,50.5C 26.498,53.4816 26.6646,56.4816 26.5,59.5C 25.8333,59.5 25.1667,59.5 24.5,59.5C 24.5,56.1667 24.5,52.8333 24.5,49.5 Z"/></g>
<g><path style="opacity:1" fill="#158375" d="M 34.5,59.5 C 31.8333,59.5 29.1667,59.5 26.5,59.5C 26.6646,56.4816 26.498,53.4816 26,50.5C 25.6174,49.944 25.1174,49.6107 24.5,49.5C 23.8333,49.1667 23.1667,48.8333 22.5,48.5C 21.537,47.6365 21.537,46.9698 22.5,46.5C 25.4815,47.3982 28.4815,47.5649 31.5,47C 33.6748,50.8666 34.6748,55.0333 34.5,59.5 Z"/></g>
</svg>
