<?xml version="1.0" standalone="no"?>
<!DOCTYPE svg PUBLIC "-//W3C//DTD SVG 20010904//EN"
 "http://www.w3.org/TR/2001/REC-SVG-20010904/DTD/svg10.dtd">
<svg version="1.0" xmlns="http://www.w3.org/2000/svg"
 width="60.000000pt" height="60.000000pt" viewBox="0 0 60.000000 60.000000"
 preserveAspectRatio="xMidYMid meet">

<g transform="translate(0.000000,60.000000) scale(0.100000,-0.100000)"
fill="#000000" stroke="none">
<path d="M172 522 c-7 -2 -12 -12 -12 -23 0 -15 -7 -19 -30 -19 -29 0 -39 -9
-44 -44 -1 -8 -5 -19 -9 -22 -12 -12 -8 -41 8 -54 9 -8 15 -30 15 -57 0 -55
23 -105 62 -138 27 -23 29 -29 27 -82 -3 -58 -3 -58 32 -70 76 -26 249 12 249
55 0 10 -5 44 -11 75 -11 51 -10 58 10 86 30 42 46 176 25 209 -8 12 -25 22
-38 22 -15 0 -27 9 -34 25 -17 36 -53 50 -92 36 -18 -6 -36 -8 -41 -6 -11 7
-101 13 -117 7z m28 -139 c26 -15 31 -15 52 -1 44 28 142 -2 110 -34 -17 -17
-15 -31 3 -24 11 4 15 -2 15 -20 0 -20 4 -25 16 -20 24 9 54 -12 54 -39 0 -29
-56 -78 -109 -94 -111 -33 -196 13 -220 118 -8 36 -7 43 7 47 30 9 46 20 50
34 3 9 -1 11 -11 7 -19 -7 -31 8 -23 28 7 19 21 19 56 -2z"/>
<path d="M150 310 c-18 -11 -4 -42 17 -38 10 2 19 10 21 19 4 19 -19 31 -38
19z"/>
<path d="M264 309 c-10 -17 23 -46 37 -32 7 7 9 19 6 27 -7 18 -33 21 -43 5z"/>
<path d="M238 233 c7 -3 16 -2 19 1 4 3 -2 6 -13 5 -11 0 -14 -3 -6 -6z"/>
</g>
</svg>
